<svg fill="none" height="135" viewBox="0 0 135 135" width="135" xmlns="http://www.w3.org/2000/svg" xmlns:xlink="http://www.w3.org/1999/xlink"><filter id="a" color-interpolation-filters="sRGB" filterUnits="userSpaceOnUse" height="126.686" width="127.866" x="9.65146" y="5"><feFlood flood-opacity="0" result="BackgroundImageFix"/><feColorMatrix in="SourceAlpha" type="matrix" values="0 0 0 0 0 0 0 0 0 0 0 0 0 0 0 0 0 0 127 0"/><feOffset dy="2"/><feGaussianBlur stdDeviation="2.5"/><feColorMatrix type="matrix" values="0 0 0 0 0 0 0 0 0 0 0 0 0 0 0 0 0 0 0.07 0"/><feBlend in2="BackgroundImageFix" mode="normal" result="effect1_dropShadow"/><feBlend in="SourceGraphic" in2="effect1_dropShadow" mode="normal" result="shape"/></filter><filter id="b" color-interpolation-filters="sRGB" filterUnits="userSpaceOnUse" height="132.921" width="135.667" x="-1.79984" y="5.08473"><feFlood flood-opacity="0" result="BackgroundImageFix"/><feColorMatrix in="SourceAlpha" type="matrix" values="0 0 0 0 0 0 0 0 0 0 0 0 0 0 0 0 0 0 127 0"/><feOffset dy="2"/><feGaussianBlur stdDeviation="2.5"/><feColorMatrix type="matrix" values="0 0 0 0 0 0 0 0 0 0 0 0 0 0 0 0 0 0 0.07 0"/><feBlend in2="BackgroundImageFix" mode="normal" result="effect1_dropShadow"/><feBlend in="SourceGraphic" in2="effect1_dropShadow" mode="normal" result="shape"/></filter><filter id="c" color-interpolation-filters="sRGB" filterUnits="userSpaceOnUse" height="143.965" width="142.276" x="-3.64426" y="-.471863"><feFlood flood-opacity="0" result="BackgroundImageFix"/><feColorMatrix in="SourceAlpha" type="matrix" values="0 0 0 0 0 0 0 0 0 0 0 0 0 0 0 0 0 0 127 0"/><feOffset dy="3"/><feGaussianBlur stdDeviation="7.5"/><feColorMatrix type="matrix" values="0 0 0 0 0.275 0 0 0 0 0.137266 0 0 0 0 0.0973958 0 0 0 0.31 0"/><feBlend in2="BackgroundImageFix" mode="normal" result="effect1_dropShadow"/><feBlend in="SourceGraphic" in2="effect1_dropShadow" mode="normal" result="shape"/></filter><filter id="d" color-interpolation-filters="sRGB" filterUnits="userSpaceOnUse" height="122.48" width="122.48" x="9.5" y="9.24841"><feFlood flood-opacity="0" result="BackgroundImageFix"/><feColorMatrix in="SourceAlpha" type="matrix" values="0 0 0 0 0 0 0 0 0 0 0 0 0 0 0 0 0 0 127 0"/><feOffset dy="2"/><feGaussianBlur stdDeviation="2.5"/><feColorMatrix type="matrix" values="0 0 0 0 0 0 0 0 0 0 0 0 0 0 0 0 0 0 0.07 0"/><feBlend in2="BackgroundImageFix" mode="normal" result="effect1_dropShadow"/><feBlend in="SourceGraphic" in2="effect1_dropShadow" mode="normal" result="shape"/></filter><radialGradient id="e" cx="0" cy="0" gradientTransform="matrix(55.50018721 90.50034137 -89.15855999 54.67732713 45.5 34.5)" gradientUnits="userSpaceOnUse" r="1"><stop offset="0" stop-color="#0fa376"/><stop offset="1" stop-color="#139292" stop-opacity=".88"/></radialGradient><clipPath id="f"><path d="m0 0h135v135h-135z"/></clipPath><g clip-path="url(#f)"><g filter="url(#a)"><path d="m109.399 17.1885c-22.1541-16.03763-65.0474-11.32069-83.9017 16.0376-18.85428 27.3582-10.8412 50.9429 6.599 70.7539 17.4401 19.811 48.0782 32.547 81.0727 4.245 32.995-28.3012 18.383-74.9989-3.77-91.0365z" fill="#e01c82"/></g><g filter="url(#b)"><path clip-rule="evenodd" d="m68.5722 14.2649c-4.6698-1.3071-10.9382-1.6628-19.7575-.3778-17.1237 2.4949-28.756 12.7911-35.0592 27.0337-6.34111 14.3281-7.28291 32.6935-2.6767 50.9595 4.3688 17.3247 22.6997 29.6827 44.0608 33.1547 21.2714 3.458 44.4411-2.113 57.8494-19.338 6.876-8.8319 9.963-16.3725 10.699-22.8254.732-6.4178-.836-11.9914-3.694-16.9739-2.883-5.0252-7.074-9.4394-11.557-13.4369-2.234-1.9932-4.514-3.8595-6.717-5.6398-.353-.2854-.705-.5692-1.055-.8512-1.8142-1.4635-3.5712-2.8806-5.1403-4.2327-3.9414-3.3965-6.7162-7.327-9.1666-11.0265-.3687-.5566-.7285-1.1052-1.0827-1.6452-2.0503-3.1262-3.9138-5.9676-6.2383-8.4358-2.6476-2.8113-5.8498-5.073-10.4649-6.3647zm21.9543 13.6846c2.4101 3.6384 4.8721 7.0786 8.2622 9.9999 1.5013 1.294 3.1823 2.65 4.9983 4.1144.354.2853.712.5747 1.076.8686 2.212 1.7879 4.571 3.718 6.902 5.7969 4.65 4.1465 9.295 8.9786 12.566 14.6806 3.295 5.7446 5.197 12.3788 4.325 20.028-.868 7.6141-4.457 15.9996-11.721 25.3311-14.871 19.102-40.1415 24.851-62.5975 21.201-22.3662-3.635-43.0496-16.812-48.10697-36.8671-4.82009-19.1143-3.92907-38.6558 2.95271-54.2056 6.91966-15.6353 19.90036-27.1881 38.91056-29.958 9.2477-1.34742 16.2678-1.04509 21.8261.51062 5.613 1.57108 9.5787 4.37678 12.7571 7.75168 2.6516 2.8154 4.7852 6.0739 6.8223 9.1851.3445.5261.6862 1.048 1.0272 1.5628z" fill="#ed8600" fill-rule="evenodd"/></g><g filter="url(#c)"><path d="m116.534 33.8424c-13.198-26.88659-50.4347-26.4149-75.4165-14.6225-24.9819 11.7923-36.29442 48.5845-25.9246 70.7541 10.3698 22.17 44.7788 44.811 77.7737 31.603 32.9944-13.207 36.7654-60.8481 23.5674-87.7346z" fill="url(#e)"/></g><g filter="url(#d)"><path clip-rule="evenodd" d="m58.3492 58.3832 8.0626-3.5273 5.1831-9.8623h7.0547l-2.3756 10.7261h10.5102l-1.0799 7.1987h-11.158l-3.8873 16.3411.216.432 10.7261-3.0235 1.0798.9358c-2.7355 5.471-9.8623 11.0861-14.3975 11.0861-2.0876 0-8.3505-3.3834-8.2065-4.2473l3.8873-20.8763-6.3349-1.2958z" fill="#ffebe6" fill-rule="evenodd"/></g></g></svg>